HIERARCHY
ROOT Hips
{
 OFFSET 0.000000 0.000000 0.000000
 CHANNELS 6 Xposition Yposition Zposition Yrotation Xrotation Zrotation
 JOINT Chest
 {
  OFFSET 0.000000 9.585900 0.002600
  CHANNELS 3 Yrotation Xrotation Zrotation
  JOINT Chest2
  {
   OFFSET 0.000000 9.601200 -0.005300
   CHANNELS 3 Yrotation Xrotation Zrotation
   JOINT Chest3
   {
    OFFSET 0.000000 9.561800 0.000000
    CHANNELS 3 Yrotation Xrotation Zrotation
    JOINT Chest4
    {
     OFFSET 0.000000 9.552100 0.000000
     CHANNELS 3 Yrotation Xrotation Zrotation
     JOINT Neck
     {
      OFFSET 0.000000 14.453000 0.000000
      CHANNELS 3 Yrotation Xrotation Zrotation
      JOINT Head
      {
       OFFSET 0.000000 8.936500 -0.011300
       CHANNELS 3 Yrotation Xrotation Zrotation
       End Site
       {
        OFFSET 0.000000 17.073600 -0.006000
       }
      }
     }
     JOINT RightCollar
     {
      OFFSET -2.921100 9.558500 0.000000
      CHANNELS 3 Yrotation Xrotation Zrotation
      JOINT RightShoulder
      {
       OFFSET -13.519700 0.000000 0.000000
       CHANNELS 3 Yrotation Xrotation Zrotation
       JOINT RightElbow
       {
        OFFSET 0.000000 -29.696600 0.000000
        CHANNELS 3 Yrotation Xrotation Zrotation
        JOINT RightWrist
        {
         OFFSET 0.000000 -24.004700 0.000000
         CHANNELS 3 Yrotation Xrotation Zrotation
         End Site
         {
          OFFSET 0.000000 -17.728500 0.000000
         }
        }
       }
      }
     }
     JOINT LeftCollar
     {
      OFFSET 2.921100 9.558500 0.000000
      CHANNELS 3 Yrotation Xrotation Zrotation
      JOINT LeftShoulder
      {
       OFFSET 13.519700 0.000000 0.000000
       CHANNELS 3 Yrotation Xrotation Zrotation
       JOINT LeftElbow
       {
        OFFSET 0.000000 -29.696600 0.000000
        CHANNELS 3 Yrotation Xrotation Zrotation
        JOINT LeftWrist
        {
         OFFSET 0.000000 -24.004700 0.000000
         CHANNELS 3 Yrotation Xrotation Zrotation
         End Site
         {
          OFFSET 0.000000 -17.728500 0.000000
         }
        }
       }
      }
     }
    }
   }
  }
 }
 JOINT RightHip
 {
  OFFSET -7.771700 -0.012900 -0.001300
  CHANNELS 3 Yrotation Xrotation Zrotation
  JOINT RightKnee
  {
   OFFSET 0.000000 -40.869800 0.001200
   CHANNELS 3 Yrotation Xrotation Zrotation
   JOINT RightAnkle
   {
    OFFSET 0.000000 -39.717900 0.002100
    CHANNELS 3 Yrotation Xrotation Zrotation
    JOINT RightToe
    {
     OFFSET 0.000000 -4.965400 11.033500
     CHANNELS 3 Yrotation Xrotation Zrotation
     End Site
     {
      OFFSET 0.000000 -1.423100 5.872300
     }
    }
   }
  }
 }
 JOINT LeftHip
 {
  OFFSET 7.771700 -0.012900 -0.001300
  CHANNELS 3 Yrotation Xrotation Zrotation
  JOINT LeftKnee
  {
   OFFSET 0.000000 -40.869800 0.001200
   CHANNELS 3 Yrotation Xrotation Zrotation
   JOINT LeftAnkle
   {
    OFFSET 0.000000 -39.717900 0.002100
    CHANNELS 3 Yrotation Xrotation Zrotation
    JOINT LeftToe
    {
     OFFSET 0.000000 -4.965400 11.033500
     CHANNELS 3 Yrotation Xrotation Zrotation
     End Site
     {
      OFFSET 0.000000 -1.423100 5.872300
     }
    }
   }
  }
 }
}
MOTION
Frames: 8
Frame Time: 0.008333
-15.983366 51.988204 31.900156 179.440499 -38.715861 1.104707 0.733903 25.035172 -0.530230 0.104508 3.976837 -0.031041 0.167072 6.369493 -0.067909 0.536880 20.798125 -0.111963 -3.832922 13.714224 -0.988914 -3.863202 -11.274154 -0.199352 9.206435 13.239223 14.140646 23.195666 -4.239657 -30.518849 128.341870 -56.702569 -166.536888 5.503938 -0.028028 -30.621854 -8.350818 14.048734 -16.966379 -26.823771 -0.906417 34.506235 -74.614706 -37.915791 133.593200 1.664561 0.742840 32.163017 -7.760820 -44.390721 -1.019230 -61.621916 83.526111 -70.315708 -4.346548 -10.402015 8.207059 -0.175753 -0.663079 0.083664 -1.756595 -41.656433 -4.579232 45.208669 81.400293 49.996758 -1.491602 -11.150937 -4.515949 0.870707 0.640687 0.179382
-15.975534 51.973105 31.902299 179.406185 -38.737477 1.112251 0.763082 25.052387 -0.508232 0.106582 3.979754 -0.034607 0.169733 6.367506 -0.052006 0.561887 20.801830 -0.087493 -3.839053 13.711914 -0.995409 -3.872843 -11.275756 -0.206609 9.224676 13.203872 14.126899 23.221643 -4.239508 -30.522191 129.709871 -56.881363 -167.894397 5.316603 -0.011140 -30.724589 -8.355163 14.012857 -16.944262 -26.851248 -0.896180 34.486591 -74.252400 -37.380361 133.511497 1.475025 0.665556 32.110975 -7.649724 -44.364107 -0.967595 -61.888968 83.462963 -70.630345 -4.321643 -10.437185 8.237944 -0.229269 -0.616541 0.101743 -2.100489 -41.651736 -4.621838 46.249474 81.235771 51.120075 -1.495997 -11.131610 -4.761232 0.818641 0.603348 0.185536
-15.970281 51.957249 31.903685 179.395018 -38.757851 1.119024 0.758772 25.062511 -0.502939 0.109629 3.981866 -0.032976 0.174587 6.370506 -0.049246 0.568734 20.806456 -0.089936 -3.819986 13.711982 -0.979975 -3.861252 -11.276485 -0.199185 9.239476 13.180547 14.126206 23.248598 -4.245823 -30.537532 131.099552 -57.031120 -169.244202 5.151747 0.001559 -30.812415 -8.349046 13.994871 -16.923673 -26.859549 -0.897844 34.553988 -73.861985 -36.875663 133.391230 1.288485 0.574588 32.041752 -7.544130 -44.342323 -0.950351 -62.196946 83.396524 -70.940189 -4.363217 -10.453410 8.259390 -0.188651 -0.585611 0.096707 -2.429473 -41.649135 -4.687008 47.281376 81.066432 52.257622 -1.675640 -11.164657 -4.997526 0.754202 0.592405 0.193974
-15.965002 51.941672 31.902978 179.356692 -38.785530 1.142699 0.762510 25.078999 -0.508077 0.098430 3.975126 -0.026121 0.182702 6.373769 -0.041697 0.601817 20.817632 -0.090691 -3.813600 13.715616 -0.975027 -3.815172 -11.269244 -0.175623 9.245350 13.159033 14.119137 23.293676 -4.257750 -30.571227 132.405443 -57.172857 -170.511186 5.000944 0.017645 -30.880867 -8.361775 13.987155 -16.927468 -26.853558 -0.901652 34.633451 -73.466283 -36.351752 133.271210 1.101339 0.469315 31.950671 -7.418229 -44.308126 -0.912043 -62.480748 83.315009 -71.302329 -4.309415 -10.461835 8.386746 -0.270298 -0.570227 0.036338 -2.716455 -41.634332 -4.784610 48.310444 80.881466 53.461342 -1.900212 -11.193290 -5.318655 0.793848 0.575736 0.223399
-15.954839 51.925598 31.901131 179.318625 -38.813488 1.139275 0.776820 25.093753 -0.483861 0.118156 3.985491 -0.029801 0.171552 6.369215 -0.032868 0.633690 20.817616 -0.060895 -3.829204 13.721342 -1.000084 -3.810240 -11.267231 -0.175117 9.246318 13.142824 14.094977 23.324826 -4.266151 -30.612226 133.634336 -57.288373 -171.688047 4.853281 0.034264 -30.933830 -8.381386 13.980228 -16.948792 -26.840560 -0.902156 34.685603 -73.079311 -35.799968 133.165671 0.914568 0.348815 31.835555 -7.321416 -44.268858 -0.833217 -62.755634 83.232124 -71.658453 -4.235337 -10.469006 8.483091 -0.375762 -0.560982 0.002484 -3.013880 -41.615437 -4.863617 49.366673 80.677561 54.705667 -2.039255 -11.225566 -5.672870 0.902339 0.576743 0.256801
-15.942264 51.908622 31.898851 179.278834 -38.837019 1.127022 0.797778 25.106653 -0.448415 0.121073 3.987251 -0.028201 0.170899 6.370332 -0.032458 0.652127 20.824465 -0.066616 -3.821665 13.722714 -0.993463 -3.805504 -11.265380 -0.175485 9.264170 13.122629 14.095838 23.366978 -4.282785 -30.660436 134.743401 -57.388615 -172.739469 4.711840 0.055587 -30.970240 -8.375799 13.962441 -16.922503 -26.822478 -0.897029 34.715033 -72.712426 -35.252566 133.069901 0.735141 0.218361 31.697743 -7.234041 -44.235126 -0.745181 -63.037174 83.150259 -71.998348 -4.194311 -10.472325 8.551526 -0.442241 -0.551011 -0.004820 -3.316741 -41.600351 -4.921473 50.426095 80.463423 55.924511 -2.099161 -11.259859 -5.999288 1.024866 0.597256 0.261900
-15.931169 51.890814 31.896328 179.245606 -38.856118 1.125806 0.766269 25.104932 -0.450021 0.155484 3.997504 -0.025049 0.168996 6.371978 -0.034497 0.680297 20.827100 -0.050984 -3.810453 13.726860 -0.993939 -3.793388 -11.261385 -0.178515 9.262223 13.124944 14.075073 23.432607 -4.312039 -30.717265 135.714538 -57.473819 -173.655057 4.580096 0.086108 -30.986250 -8.374180 13.929587 -16.891063 -26.804497 -0.880824 34.714035 -72.374766 -34.725755 132.986473 0.570451 0.080651 31.534912 -7.138254 -44.208857 -0.677986 -63.319709 83.068678 -72.339220 -4.131642 -10.454105 8.627521 -0.534572 -0.563774 0.005888 -3.616169 -41.592271 -4.987111 51.437956 80.251164 57.082105 -2.174853 -11.315754 -6.371008 1.177915 0.635371 0.326399
-15.915479 51.872360 31.893458 179.189093 -38.872852 1.119125 0.770672 25.105536 -0.432481 0.174176 4.003726 -0.020816 0.170107 6.371428 -0.035255 0.711835 20.831792 -0.037850 -3.797246 13.731386 -0.993320 -3.779147 -11.256934 -0.180778 9.266422 13.098015 14.066963 23.455086 -4.296422 -30.742554 136.569103 -57.501349 -174.440259 4.457688 0.118589 -30.978492 -8.378244 13.927469 -16.904036 -26.791009 -0.864103 34.769251 -72.067625 -34.238178 132.920638 0.426752 -0.071293 31.348505 -7.046958 -44.183950 -0.582648 -63.591934 82.987023 -72.667906 -4.088431 -10.452102 8.699968 -0.593468 -0.559193 -0.023745 -3.918379 -41.584532 -5.012209 52.359629 80.050071 58.140827 -2.164223 -11.338573 -6.718381 1.214095 0.614577 0.427314
